<?xml version="1.0" encoding="UTF-8"?> <svg id="Layer_2" data-name="Layer 2" xmlns="http://www.w3.org/2000/svg" viewBox="0 0 77.16 10"> <defs> <style> .cls-1 { fill: #fff; stroke-width: 0px; } </style> </defs> <g id="svg12"> <g id="g10"> <path id="path2" class="cls-1" d="m34.74,2.22h-3.98v.42c1.24,0,1.44.27,1.44,1.84v2.84c0,1.58-.2,1.87-1.44,1.87-.95-.13-1.6-.64-2.49-1.62l-1.02-1.11c1.38-.24,2.11-1.11,2.11-2.09,0-1.22-1.04-2.15-3-2.15h-3.91v.42c1.24,0,1.44.27,1.44,1.84v2.84c0,1.58-.2,1.87-1.44,1.87v.42h4.42v-.42c-1.24,0-1.44-.29-1.44-1.87v-.8h.38l2.47,3.09h6.46c3.18,0,4.55-1.69,4.55-3.71s-1.38-3.69-4.55-3.69Zm-9.31,3.62v-2.95h.91c1,0,1.44.69,1.44,1.49s-.44,1.47-1.44,1.47h-.91Zm9.37,3.09h-.16c-.8,0-.91-.2-.91-1.22V2.89h1.07c2.31,0,2.73,1.69,2.73,3s-.42,3.04-2.73,3.04Zm-24.72-2.27l1.53-4.53c.44-1.31.24-1.69-1.18-1.69V0h4.18v.44c-1.4,0-1.73.33-2.29,1.95l-2.53,7.6h-.29l-2.27-6.95-2.31,6.95h-.29L2.18,2.4C1.64.78,1.29.44,0,.44V0h4.93v.44c-1.31,0-1.67.31-1.2,1.69l1.49,4.53L7.46,0h.42l2.2,6.66Zm7.55,3.24c-2.44,0-4.44-1.8-4.44-4s2-3.98,4.44-3.98,4.44,1.8,4.44,3.98-2,4-4.44,4Zm0-7.28c-2.04,0-2.75,1.84-2.75,3.29s.71,3.29,2.75,3.29,2.78-1.82,2.78-3.29-.71-3.29-2.78-3.29Z"/> <path id="path4" class="cls-1" d="m44.78,9.17v.44h-5.09v-.44c1.49,0,1.75-.38,1.75-2.6v-3.55c0-2.22-.27-2.58-1.75-2.58v-.44h4.6c2.29,0,3.55,1.18,3.55,2.75s-1.27,2.73-3.55,2.73h-1.27v1.09c0,2.22.27,2.6,1.75,2.6Zm-.49-8.37h-1.27v3.86h1.27c1.24,0,1.82-.87,1.82-1.91s-.58-1.95-1.82-1.95Zm18.81,6.73l-.11.4c-.2.73-.44,1-2.02,1h-.31c-1.15,0-1.35-.27-1.35-1.84v-1.02c1.73,0,1.87.16,1.87,1.31h.42v-3.31h-.42c0,1.15-.13,1.31-1.87,1.31v-2.49h1.22c1.58,0,1.82.27,2.02,1l.11.42h.36l-.16-2.09h-6.53v.42c1.24,0,1.44.27,1.44,1.84v2.84c0,1.44-.17,1.81-1.15,1.86-.93-.14-1.57-.65-2.45-1.61l-1.02-1.11c1.38-.24,2.11-1.11,2.11-2.09,0-1.22-1.04-2.15-3-2.15h-3.91v.42c1.24,0,1.44.27,1.44,1.84v2.84c0,1.58-.2,1.87-1.44,1.87v.42h4.42v-.42c-1.24,0-1.44-.29-1.44-1.87v-.8h.38l2.47,3.09h9.13l.13-2.09h-.33,0Zm-11.77-1.69v-2.95h.91c1,0,1.44.69,1.44,1.49s-.44,1.47-1.44,1.47h-.91Zm16.28,4.06c-.89,0-1.67-.47-2-.76-.11.11-.31.44-.36.76h-.42v-3.06h.44c.18,1.47,1.2,2.33,2.51,2.33.71,0,1.29-.4,1.29-1.07,0-.58-.51-1.02-1.42-1.44l-1.27-.6c-.89-.42-1.55-1.16-1.55-2.13,0-1.07,1-1.98,2.38-1.98.73,0,1.35.27,1.73.58.11-.09.22-.33.29-.6h.42v2.62h-.47c-.16-1.04-.73-1.91-1.91-1.91-.62,0-1.2.36-1.2.91s.47.89,1.53,1.38l1.22.6c1.07.51,1.49,1.33,1.49,2,0,1.4-1.22,2.38-2.71,2.38Zm6.84,0c-.89,0-1.67-.47-2-.76-.11.11-.31.44-.36.76h-.42v-3.06h.44c.18,1.47,1.2,2.33,2.51,2.33.71,0,1.29-.4,1.29-1.07,0-.58-.51-1.02-1.42-1.44l-1.27-.6c-.89-.42-1.55-1.16-1.55-2.13,0-1.07,1-1.98,2.38-1.98.73,0,1.35.27,1.73.58.11-.09.22-.33.29-.6h.42v2.62h-.47c-.16-1.04-.73-1.91-1.91-1.91-.62,0-1.2.36-1.2.91s.47.89,1.53,1.38l1.22.6c1.07.51,1.49,1.33,1.49,2,0,1.4-1.22,2.38-2.71,2.38Z"/> </g> </g> </svg>